# xmcd CD database file
#
# Track frame offsets:
#	183
#	33858
#	85883
#	112933
#	172895
#	185083
#	198883
#	214708
#	235633
#	251833
#
# Disc length: 3553 seconds
#
# Revision: 0
# Processed by: cddbd v1.5.2PL0 Copyright (c) Steve Scherf et al.
# Submitted via: CDex 1.51
#
DISCID=7a0ddf0a
DTITLE=Dizzy Gillespie - On The Sunny Side Of The Street
DYEAR=1953
DGENRE=Jazz
TTITLE0=The Champ
TTITLE1=Good Bait
TTITLE2=Tin Tin Deo
TTITLE3=Perdido
TTITLE4=On The Sunny Side Of The Street
TTITLE5=I Can't Get Started
TTITLE6=Tin Tin Deo
TTITLE7=Alone Together
TTITLE8=They Can't Take That Away From Me
TTITLE9=Manteca
EXTD=YEAR: 1953
EXTT0=
EXTT1=
EXTT2=
EXTT3=
EXTT4=
EXTT5=
EXTT6=
EXTT7=
EXTT8=
EXTT9=
PLAYORDER=
